<?xml version="1.0" encoding="utf-8"?>
<!-- Generator: Adobe Illustrator 24.0.2, SVG Export Plug-In . SVG Version: 6.00 Build 0)  -->
<svg version="1.1" xmlns="http://www.w3.org/2000/svg" xmlns:xlink="http://www.w3.org/1999/xlink" x="0px" y="0px"
	 viewBox="0 0 1920 1080" style="enable-background:new 0 0 1920 1080;" xml:space="preserve">
<style type="text/css">
	.st0{fill:#270045;}
	.st1{opacity:0.5;}
	.st2{fill:#FF18E3;}
	.st3{fill:url(#SVGID_1_);}
	.st4{fill:url(#SVGID_2_);}
	.st5{fill:url(#SVGID_3_);}
	.st6{fill:url(#SVGID_4_);} 
	.st7{fill:url(#SVGID_5_);}
	.st8{fill:#F8F5FF;stroke:#FFFFFF;stroke-width:2;stroke-miterlimit:10;}
	.st9{font-family:'Brussci';}
	.st10{font-size:391.186px;}
	@keyframes rotate{
		0% { opacity:1; }
    	1% { opacity:0; }
		2% { opacity:1; }
		10% { opacity:1; }
    	11% { opacity:0; }
		12% { opacity:1; }
		15% { opacity:1; }
    	16% { opacity:0; }
		25% { opacity:0; }
		26% { opacity:1; }
		33% { opacity:1; }
    	34% { opacity:0; }
		35% { opacity:1; }
		73% { opacity:1; }
    	74% { opacity:0; }
		75% { opacity:1; }
		100% { opacity:1; }
	}
	#neon{
		animation: rotate 4s infinite;
	}
	@font-face {
    font-family: Brussci; 
    src: url(../font/BRUSHSCI.ttf);
   }
</style>
<g id="Слой_4">
	<rect x="-1" class="st0" width="1920" height="1080"/>
</g>
<g id="Слой_1">
	<g id="notneon">
		<g class="st1">
			<g>
				<path class="st2" d="M311.5,283c-11-13.2-21.3-29.5-25-46.5c-1.7-7.8-1.8-17.4,4.1-23.6c6-6.3,15.3-6.9,23.4-6.6
					c38.6,1.1,77.3,4.7,115.8,8.3c39.2,3.6,78.2,8,117.2,13.3c30.8,4.1,67.8,9.2,92-15.2c9-9,13.8-21.2,12.4-34
					c-1.3-11.4-7.4-22.2-18.1-27.1c-13.6-6.2-30.3-3.3-44.4-0.5c-14.1,2.8-27.8,7.4-40.9,13.4c-26.7,12.3-50.6,30.8-68.9,53.7
					c-20.3,25.4-32,55.4-39.8,86.7c-8.8,35.6-14,71.9-23,107.5c-2.3,9.1-4.7,18.1-7.3,27.1c-1.2,4-2.1,8.4-4.2,12.1
					c-0.8,1.4-1.9,3.2-3.4,4c-3.1,1.7-6.1-0.1-8.7-1.8c-16.4-10.6-32.6-21.3-49-32c-8.3-5.4-16.6-10.9-24.9-16.3
					c-1.6-1.1-3.1,1.5-1.5,2.6c16.6,10.9,33.2,21.7,49.8,32.6c8,5.2,16,10.5,24.1,15.7c4.4,2.9,9,4.6,13.4,0.5
					c4.7-4.4,6-11.6,7.6-17.5c2.7-9.3,5.2-18.7,7.5-28.1c4.6-18.3,8.5-36.7,12-55.2c6.6-34.5,12.8-69.7,28.1-101.6
					c13.4-27.9,34-52,59.2-69.8c24.7-17.5,53.5-29.1,83.6-32.8c16.4-2,34.9-0.9,42.8,16c6.3,13.5,3.1,29.5-6.5,40.5
					c-24.9,28.5-67.8,19.6-100.5,15.3c-38.4-5-76.9-9.3-115.5-12.8c-19.3-1.7-38.6-3.3-57.9-4.6c-9.8-0.7-19.6-1.3-29.5-1.9
					c-8.9-0.5-18-1.5-27-1.1c-12.9,0.5-24.2,6.8-25.9,20.6c-1.7,14.3,5.4,28.9,12.3,40.9c4.1,7.2,9,14,14.3,20.3
					C310.6,286.6,312.7,284.5,311.5,283L311.5,283z"/>
			</g>
		</g>
		<g class="st1">
			<g>
				<path class="st2" d="M642.5,232.6c-7.6,37.5-17.2,74.5-28.8,110.9c-5.9,18.3-12.2,36.5-19.1,54.5c-6.2,16.3-12.4,37.9-30.5,44.8
					c-17.6,6.7-31.5-9.2-31.7-26c-0.2-18.6,13.6-35.1,24.8-48.7c11.7-14.2,24.5-27.4,37.8-40.1c13.6-13,27.2-26.7,43-37
					c17.1-11.2,36.3-16.7,56.1-20.7c19.1-3.9,38.3-6.8,57.8-7.8c1.9-0.1,1.9-3.1,0-3c-18.3,1-36.4,3.5-54.4,7.1
					c-18.4,3.6-36.7,8-53.2,17.2c-17.6,9.8-32.3,24-46.8,37.8c-14.7,13.9-29,28.2-41.9,43.8c-11.2,13.6-24,29-26,47.1
					c-1.5,13,4.5,28.5,17.5,33.5c15.9,6.2,30.9-6.3,38.4-19.3c4.5-7.9,7.6-16.6,10.9-25.1c3.8-10,7.5-20.1,11.1-30.2
					c15.7-45,28.3-91.1,37.8-137.9C645.8,231.5,642.9,230.7,642.5,232.6L642.5,232.6z"/>
			</g>
		</g>
		<g class="st1">
			<g>
				<path class="st2" d="M915.6,258.6c-10.2,25.6-20.6,51.1-31.7,76.4c-5.7,13-11.8,25.6-19.3,37.6c-11.8,19-25.9,37-42.7,51.9
					c-10.9,9.7-23.9,18-38.6,19.9c-12.8,1.7-27-1.2-36.1-10.9c-10.3-10.9-10.2-27.3-9.1-41.3c1.2-14.8,6.2-28.9,13.2-41.9
					c11.9-22.1,27-44.1,45.5-61.2c17-15.7,38.4-28.7,61.9-31c15-1.5,26.1,6.5,30,20.9c2.9,10.9,2.7,23.6,0.6,34.6
					c-3.4,17.9-14.2,32.5-19.5,49.7c-6.7,21.8-7.6,45.2-5.8,67.8c0.6,7.5,1.5,15,2.7,22.4c0.3,1.9,3.2,1.1,2.9-0.8
					c-4.2-27.7-5.6-56.8,1.8-84.1c5-18.6,16.8-34.4,20.6-53.4c3.9-19.4,3.6-52-19.8-59c-12.5-3.7-26.1,1-37.8,5.2
					c-12.7,4.6-23.6,11.8-33.8,20.4c-18.1,15.1-31.9,34.4-44.4,54.3c-15,23.8-25.4,51.7-20.4,80.3c4.9,27.7,35.1,36.8,59.2,28.4
					c22.7-7.9,40.7-27.6,55.2-46.1c28.5-36.3,44.4-79.8,61.6-122.2c2.3-5.7,4.6-11.4,6.8-17C919.2,257.6,916.3,256.8,915.6,258.6
					L915.6,258.6z"/>
			</g>
		</g>
		<g class="st1">
			<g>
				<path class="st2" d="M1079.1,290.9c-6.4-7.9-9.3-20.1-1.2-28c5.4-5.3,13.3-6.2,20-3.2c12.5,5.7,24.5,18.9,29.4,31.6
					c5.8,15.3,2.7,32.6-4.7,46.8c-6.7,12.8-18.3,26.1-32.6,30.5c-5.4,1.7-11.2,2-16.9,2.3c-9.4,0.5-18.9,0.5-28.3,0.7
					c-12.8,0.2-27.8,1.8-40.2-2.5c-12.5-4.4-18.8-19-21.1-31c-3.1-16.2-0.4-34,7.9-48.4c12.1-20.9,37.1-33.2,61-33.7
					c-0.4-0.8-0.9-1.5-1.3-2.3c-11.7,26.9-23.8,53.6-36.5,80.1c-15.8,33.1-31.6,67.3-52.6,97.5c-3.4,4.8-7,9.9-11.5,13.8
					c-3.5,2.9-7.9,5.3-12.2,6.6c-9.7,2.9-15.3-3.6-17.7-12.1c-0.5-1.9-3.4-1.1-2.9,0.8c3,11,11.1,17.9,22.7,13.8
					c6.2-2.2,11.6-5.8,15.9-10.6c10-11.1,17.5-24.7,24.8-37.6c20.4-36.1,37.9-73.7,55.1-111.4c5.9-13,11.7-26.1,17.5-39.2
					c0.4-1-0.1-2.3-1.3-2.3c-23.2,0.4-47.6,11.7-60.9,31c-10.1,14.6-13.9,33.4-11.5,50.9c1.8,13.4,8,29.8,21.1,36
					c4.9,2.3,10.3,3,15.6,3.4c9.3,0.7,18.7,0.5,28.1,0.3c10.7-0.2,21.4-0.2,32.1-0.9c5.8-0.4,11.8-1,17.2-3.4
					c30.6-13.2,49.8-56.3,33.1-86.5c-3.8-6.9-9-12.8-15-17.8c-6.8-5.7-14.6-12-24.1-11c-7,0.7-13.6,5.3-16.4,11.7
					c-4,9-0.6,19,5.4,26.3C1078.2,294.6,1080.3,292.4,1079.1,290.9L1079.1,290.9z"/>
			</g>
		</g>
		<g class="st1">
			<g>
				<path class="st2" d="M401.5,554.3c28.1,5,52.1,29,53.1,58.4c1.3,39.6-47,54.4-78.9,52.9c-36.9-1.8-69.7-22.2-90.7-52.1
					c-9.6-13.6-17.2-30.8-13-47.8c2.3-9.2,8-16.9,15-23.1c11.3-10,25.6-16.5,39.6-21.7c13.8-5.1,28-9,42.3-12.4
					c23.4-5.5,47.1-9.6,70.8-12.7c54.7-7.3,110-10.2,165.1-11.3c58.1-1.1,116.3,0,174.4,2.5c53.1,2.2,106.2,5.6,159.3,9.9
					c39.8,3.2,79.6,6.9,119.3,11.2c18.2,1.9,36.3,4,54.4,6.2c41.8,5.3,92.5,8.9,128.1-18.1c18.1-13.7,36.6-41.1,28.2-64.5
					c-9.3-25.9-45.5-34.3-69.5-30.1c-11.2,2-22,6.3-31.7,12.2c-1.6,1-0.1,3.6,1.5,2.6c24.3-14.9,55.1-17.8,80-2.8
					c15.4,9.3,22,25.2,16.5,42.6c-3.6,11.4-10.6,22.1-19,30.6c-21.2,21.7-53.7,27.4-82.8,27.9c-17.2,0.3-34.3-1.3-51.3-3.4
					c-18.2-2.3-36.4-4.3-54.6-6.3c-40.4-4.3-80.9-8.1-121.4-11.3c-53.8-4.3-107.6-7.7-161.5-9.9c-58.9-2.4-118-3.4-176.9-2.1
					c-55.2,1.2-110.5,4.4-165.1,12.1c-23.6,3.3-47.2,7.5-70.3,13.3c-27.3,6.8-58.3,15.1-79.3,35.1c-6.4,6.1-11.5,13.6-13.8,22.2
					c-4,14.9,0.9,30.4,8.4,43.3c16.6,28.5,45.4,50.9,77.6,58.3c31.3,7.1,71.9,2.4,92.9-24.7c16.9-21.8,8.4-53-10-71.2
					c-9.8-9.6-22.5-16-36-18.4C400.4,551.1,399.6,554,401.5,554.3L401.5,554.3z"/>
			</g>
		</g>
	</g>
	<g id="neon">
		<g>
			<image style="overflow:visible;" width="442" height="385" xlink:href="D917B89E.png"  transform="matrix(1 0 0 1 246 111)">
			</image>
		</g>
		<g>
			<image style="overflow:visible;" width="297" height="289" xlink:href="D917B8A2.png"  transform="matrix(1 0 0 1 493 195)">
			</image>
		</g>
		<g>
			<image style="overflow:visible;" width="257" height="273" xlink:href="D917B8A5.png"  transform="matrix(1 0 0 1 698 218)">
			</image>
		</g>
		<g>
			<image style="overflow:visible;" width="289" height="275" xlink:href="D917B8A6.png"  transform="matrix(1 0 0 1 881 217)">
			</image>
		</g>
		<g>
			<image style="overflow:visible;" width="1076" height="341" xlink:href="D917B8A4.png"  transform="matrix(1 0 0 1 231 364)">
			</image>
		</g>
		<g class="st1">
			<g>
				<linearGradient id="SVGID_1_" gradientUnits="userSpaceOnUse" x1="283.92" y1="303.5099" x2="650.3253" y2="303.5099">
					<stop  offset="0" style="stop-color:#FF18E3"/>
					<stop  offset="0.25" style="stop-color:#FFFFFF"/>
					<stop  offset="0.3053" style="stop-color:#FFC9F9"/>
					<stop  offset="0.4405" style="stop-color:#FF4BE9"/>
					<stop  offset="0.5" style="stop-color:#FF18E3"/>
					<stop  offset="0.5305" style="stop-color:#FF3AE7"/>
					<stop  offset="0.6109" style="stop-color:#FF8DF1"/>
					<stop  offset="0.6767" style="stop-color:#FFCBF9"/>
					<stop  offset="0.7248" style="stop-color:#FFF1FD"/>
					<stop  offset="0.75" style="stop-color:#FFFFFF"/>
					<stop  offset="1" style="stop-color:#FF18E3"/>
				</linearGradient>
				<path class="st3" d="M311.5,283c-11-13.2-21.3-29.5-25-46.5c-1.7-7.8-1.8-17.4,4.1-23.6c6-6.3,15.3-6.9,23.4-6.6
					c38.6,1.1,77.3,4.7,115.8,8.3c39.2,3.6,78.2,8,117.2,13.3c30.8,4.1,67.8,9.2,92-15.2c9-9,13.8-21.2,12.4-34
					c-1.3-11.4-7.4-22.2-18.1-27.1c-13.6-6.2-30.3-3.3-44.4-0.5c-14.1,2.8-27.8,7.4-40.9,13.4c-26.7,12.3-50.6,30.8-68.9,53.7
					c-20.3,25.4-32,55.4-39.8,86.7c-8.8,35.6-14,71.9-23,107.5c-2.3,9.1-4.7,18.1-7.3,27.1c-1.2,4-2.1,8.4-4.2,12.1
					c-0.8,1.4-1.9,3.2-3.4,4c-3.1,1.7-6.1-0.1-8.7-1.8c-16.4-10.6-32.6-21.3-49-32c-8.3-5.4-16.6-10.9-24.9-16.3
					c-1.6-1.1-3.1,1.5-1.5,2.6c16.6,10.9,33.2,21.7,49.8,32.6c8,5.2,16,10.5,24.1,15.7c4.4,2.9,9,4.6,13.4,0.5
					c4.7-4.4,6-11.6,7.6-17.5c2.7-9.3,5.2-18.7,7.5-28.1c4.6-18.3,8.5-36.7,12-55.2c6.6-34.5,12.8-69.7,28.1-101.6
					c13.4-27.9,34-52,59.2-69.8c24.7-17.5,53.5-29.1,83.6-32.8c16.4-2,34.9-0.9,42.8,16c6.3,13.5,3.1,29.5-6.5,40.5
					c-24.9,28.5-67.8,19.6-100.5,15.3c-38.4-5-76.9-9.3-115.5-12.8c-19.3-1.7-38.6-3.3-57.9-4.6c-9.8-0.7-19.6-1.3-29.5-1.9
					c-8.9-0.5-18-1.5-27-1.1c-12.9,0.5-24.2,6.8-25.9,20.6c-1.7,14.3,5.4,28.9,12.3,40.9c4.1,7.2,9,14,14.3,20.3
					C310.6,286.6,312.7,284.5,311.5,283L311.5,283z"/>
			</g>
		</g>
		<g class="st1">
			<g>
				<linearGradient id="SVGID_2_" gradientUnits="userSpaceOnUse" x1="530.875" y1="339.541" x2="752.0063" y2="339.541">
					<stop  offset="0" style="stop-color:#FF18E3"/>
					<stop  offset="0.25" style="stop-color:#FFFFFF"/>
					<stop  offset="0.3053" style="stop-color:#FFC9F9"/>
					<stop  offset="0.4405" style="stop-color:#FF4BE9"/>
					<stop  offset="0.5" style="stop-color:#FF18E3"/>
					<stop  offset="0.5305" style="stop-color:#FF3AE7"/>
					<stop  offset="0.6109" style="stop-color:#FF8DF1"/>
					<stop  offset="0.6767" style="stop-color:#FFCBF9"/>
					<stop  offset="0.7248" style="stop-color:#FFF1FD"/>
					<stop  offset="0.75" style="stop-color:#FFFFFF"/>
					<stop  offset="1" style="stop-color:#FF18E3"/>
				</linearGradient>
				<path class="st4" d="M642.5,232.6c-7.6,37.5-17.2,74.5-28.8,110.9c-5.9,18.3-12.2,36.5-19.1,54.5c-6.2,16.3-12.4,37.9-30.5,44.8
					c-17.6,6.7-31.5-9.2-31.7-26c-0.2-18.6,13.6-35.1,24.8-48.7c11.7-14.2,24.5-27.4,37.8-40.1c13.6-13,27.2-26.7,43-37
					c17.1-11.2,36.3-16.7,56.1-20.7c19.1-3.9,38.3-6.8,57.8-7.8c1.9-0.1,1.9-3.1,0-3c-18.3,1-36.4,3.5-54.4,7.1
					c-18.4,3.6-36.7,8-53.2,17.2c-17.6,9.8-32.3,24-46.8,37.8c-14.7,13.9-29,28.2-41.9,43.8c-11.2,13.6-24,29-26,47.1
					c-1.5,13,4.5,28.5,17.5,33.5c15.9,6.2,30.9-6.3,38.4-19.3c4.5-7.9,7.6-16.6,10.9-25.1c3.8-10,7.5-20.1,11.1-30.2
					c15.7-45,28.3-91.1,37.8-137.9C645.8,231.5,642.9,230.7,642.5,232.6L642.5,232.6z"/>
			</g>
		</g>
		<g class="st1">
			<g>
				<linearGradient id="SVGID_3_" gradientUnits="userSpaceOnUse" x1="735.973" y1="354.6309" x2="917.1161" y2="354.6309">
					<stop  offset="0" style="stop-color:#FF18E3"/>
					<stop  offset="0.25" style="stop-color:#FFFFFF"/>
					<stop  offset="0.3053" style="stop-color:#FFC9F9"/>
					<stop  offset="0.4405" style="stop-color:#FF4BE9"/>
					<stop  offset="0.5" style="stop-color:#FF18E3"/>
					<stop  offset="0.5305" style="stop-color:#FF3AE7"/>
					<stop  offset="0.6109" style="stop-color:#FF8DF1"/>
					<stop  offset="0.6767" style="stop-color:#FFCBF9"/>
					<stop  offset="0.7248" style="stop-color:#FFF1FD"/>
					<stop  offset="0.75" style="stop-color:#FFFFFF"/>
					<stop  offset="1" style="stop-color:#FF18E3"/>
				</linearGradient>
				<path class="st5" d="M915.6,258.6c-10.2,25.6-20.6,51.1-31.7,76.4c-5.7,13-11.8,25.6-19.3,37.6c-11.8,19-25.9,37-42.7,51.9
					c-10.9,9.7-23.9,18-38.6,19.9c-12.8,1.7-27-1.2-36.1-10.9c-10.3-10.9-10.2-27.3-9.1-41.3c1.2-14.8,6.2-28.9,13.2-41.9
					c11.9-22.1,27-44.1,45.5-61.2c17-15.7,38.4-28.7,61.9-31c15-1.5,26.1,6.5,30,20.9c2.9,10.9,2.7,23.6,0.6,34.6
					c-3.4,17.9-14.2,32.5-19.5,49.7c-6.7,21.8-7.6,45.2-5.8,67.8c0.6,7.5,1.5,15,2.7,22.4c0.3,1.9,3.2,1.1,2.9-0.8
					c-4.2-27.7-5.6-56.8,1.8-84.1c5-18.6,16.8-34.4,20.6-53.4c3.9-19.4,3.6-52-19.8-59c-12.5-3.7-26.1,1-37.8,5.2
					c-12.7,4.6-23.6,11.8-33.8,20.4c-18.1,15.1-31.9,34.4-44.4,54.3c-15,23.8-25.4,51.7-20.4,80.3c4.9,27.7,35.1,36.8,59.2,28.4
					c22.7-7.9,40.7-27.6,55.2-46.1c28.5-36.3,44.4-79.8,61.6-122.2c2.3-5.7,4.6-11.4,6.8-17C919.2,257.6,916.3,256.8,915.6,258.6
					L915.6,258.6z"/>
			</g>
		</g>
		<g class="st1">
			<g>
				<linearGradient id="SVGID_4_" gradientUnits="userSpaceOnUse" x1="918.879" y1="354.2253" x2="1131.9187" y2="354.2253">
					<stop  offset="0" style="stop-color:#FF18E3"/>
					<stop  offset="0.25" style="stop-color:#FFFFFF"/>
					<stop  offset="0.3053" style="stop-color:#FFC9F9"/>
					<stop  offset="0.4405" style="stop-color:#FF4BE9"/>
					<stop  offset="0.5" style="stop-color:#FF18E3"/>
					<stop  offset="0.5305" style="stop-color:#FF3AE7"/>
					<stop  offset="0.6109" style="stop-color:#FF8DF1"/>
					<stop  offset="0.6767" style="stop-color:#FFCBF9"/>
					<stop  offset="0.7248" style="stop-color:#FFF1FD"/>
					<stop  offset="0.75" style="stop-color:#FFFFFF"/>
					<stop  offset="1" style="stop-color:#FF18E3"/>
				</linearGradient>
				<path class="st6" d="M1079.1,290.9c-6.4-7.9-9.3-20.1-1.2-28c5.4-5.3,13.3-6.2,20-3.2c12.5,5.7,24.5,18.9,29.4,31.6
					c5.8,15.3,2.7,32.6-4.7,46.8c-6.7,12.8-18.3,26.1-32.6,30.5c-5.4,1.7-11.2,2-16.9,2.3c-9.4,0.5-18.9,0.5-28.3,0.7
					c-12.8,0.2-27.8,1.8-40.2-2.5c-12.5-4.4-18.8-19-21.1-31c-3.1-16.2-0.4-34,7.9-48.4c12.1-20.9,37.1-33.2,61-33.7
					c-0.4-0.8-0.9-1.5-1.3-2.3c-11.7,26.9-23.8,53.6-36.5,80.1c-15.8,33.1-31.6,67.3-52.6,97.5c-3.4,4.8-7,9.9-11.5,13.8
					c-3.5,2.9-7.9,5.3-12.2,6.6c-9.7,2.9-15.3-3.6-17.7-12.1c-0.5-1.9-3.4-1.1-2.9,0.8c3,11,11.1,17.9,22.7,13.8
					c6.2-2.2,11.6-5.8,15.9-10.6c10-11.1,17.5-24.7,24.8-37.6c20.4-36.1,37.9-73.7,55.1-111.4c5.9-13,11.7-26.1,17.5-39.2
					c0.4-1-0.1-2.3-1.3-2.3c-23.2,0.4-47.6,11.7-60.9,31c-10.1,14.6-13.9,33.4-11.5,50.9c1.8,13.4,8,29.8,21.1,36
					c4.9,2.3,10.3,3,15.6,3.4c9.3,0.7,18.7,0.5,28.1,0.3c10.7-0.2,21.4-0.2,32.1-0.9c5.8-0.4,11.8-1,17.2-3.4
					c30.6-13.2,49.8-56.3,33.1-86.5c-3.8-6.9-9-12.8-15-17.8c-6.8-5.7-14.6-12-24.1-11c-7,0.7-13.6,5.3-16.4,11.7
					c-4,9-0.6,19,5.4,26.3C1078.2,294.6,1080.3,292.4,1079.1,290.9L1079.1,290.9z"/>
			</g>
		</g>
		<g class="st1">
			<g>
				<linearGradient id="SVGID_5_" gradientUnits="userSpaceOnUse" x1="269.2148" y1="534.5822" x2="1269.0538" y2="534.5822">
					<stop  offset="0" style="stop-color:#FF18E3"/>
					<stop  offset="0.25" style="stop-color:#FFFFFF"/>
					<stop  offset="0.3053" style="stop-color:#FFC9F9"/>
					<stop  offset="0.4405" style="stop-color:#FF4BE9"/>
					<stop  offset="0.5" style="stop-color:#FF18E3"/>
					<stop  offset="0.5305" style="stop-color:#FF3AE7"/>
					<stop  offset="0.6109" style="stop-color:#FF8DF1"/>
					<stop  offset="0.6767" style="stop-color:#FFCBF9"/>
					<stop  offset="0.7248" style="stop-color:#FFF1FD"/>
					<stop  offset="0.75" style="stop-color:#FFFFFF"/>
					<stop  offset="1" style="stop-color:#FF18E3"/>
				</linearGradient>
				<path class="st7" d="M401.5,554.3c28.1,5,52.1,29,53.1,58.4c1.3,39.6-47,54.4-78.9,52.9c-36.9-1.8-69.7-22.2-90.7-52.1
					c-9.6-13.6-17.2-30.8-13-47.8c2.3-9.2,8-16.9,15-23.1c11.3-10,25.6-16.5,39.6-21.7c13.8-5.1,28-9,42.3-12.4
					c23.4-5.5,47.1-9.6,70.8-12.7c54.7-7.3,110-10.2,165.1-11.3c58.1-1.1,116.3,0,174.4,2.5c53.1,2.2,106.2,5.6,159.3,9.9
					c39.8,3.2,79.6,6.9,119.3,11.2c18.2,1.9,36.3,4,54.4,6.2c41.8,5.3,92.5,8.9,128.1-18.1c18.1-13.7,36.6-41.1,28.2-64.5
					c-9.3-25.9-45.5-34.3-69.5-30.1c-11.2,2-22,6.3-31.7,12.2c-1.6,1-0.1,3.6,1.5,2.6c24.3-14.9,55.1-17.8,80-2.8
					c15.4,9.3,22,25.2,16.5,42.6c-3.6,11.4-10.6,22.1-19,30.6c-21.2,21.7-53.7,27.4-82.8,27.9c-17.2,0.3-34.3-1.3-51.3-3.4
					c-18.2-2.3-36.4-4.3-54.6-6.3c-40.4-4.3-80.9-8.1-121.4-11.3c-53.8-4.3-107.6-7.7-161.5-9.9c-58.9-2.4-118-3.4-176.9-2.1
					c-55.2,1.2-110.5,4.4-165.1,12.1c-23.6,3.3-47.2,7.5-70.3,13.3c-27.3,6.8-58.3,15.1-79.3,35.1c-6.4,6.1-11.5,13.6-13.8,22.2
					c-4,14.9,0.9,30.4,8.4,43.3c16.6,28.5,45.4,50.9,77.6,58.3c31.3,7.1,71.9,2.4,92.9-24.7c16.9-21.8,8.4-53-10-71.2
					c-9.8-9.6-22.5-16-36-18.4C400.4,551.1,399.6,554,401.5,554.3L401.5,554.3z"/>
			</g>
		</g>
		<g>
			<image style="overflow:visible;" width="442" height="385" xlink:href="D917B8A3.png"  transform="matrix(1 0 0 1 246 111)">
			</image>
		</g>
		<g>
			<image style="overflow:visible;" width="297" height="289" xlink:href="D917B8AD.png"  transform="matrix(1 0 0 1 493 195)">
			</image>
		</g>
		<g>
			<image style="overflow:visible;" width="257" height="273" xlink:href="D917B8AE.png"  transform="matrix(1 0 0 1 698 218)">
			</image>
		</g>
		<g>
			<image style="overflow:visible;" width="289" height="275" xlink:href="D917B8AC.png"  transform="matrix(1 0 0 1 881 217)">
			</image>
		</g>
		<g>
			<image style="overflow:visible;" width="1076" height="341" xlink:href="606DAF21.png"  transform="matrix(1 0 0 1 231 364)">
			</image>
		</g>
		<g>
			<image style="overflow:visible;" width="442" height="385" xlink:href="606DAF27.png"  transform="matrix(1 0 0 1 246 111)">
			</image>
		</g>
		<g>
			<image style="overflow:visible;" width="297" height="289" xlink:href="606DAF20.png"  transform="matrix(1 0 0 1 493 195)">
			</image>
		</g>
		<g>
			<image style="overflow:visible;" width="257" height="273" xlink:href="606DAF23.png"  transform="matrix(1 0 0 1 698 218)">
			</image>
		</g>
		<g>
			<image style="overflow:visible;" width="289" height="275" xlink:href="606DAF3F.png"  transform="matrix(1 0 0 1 881 217)">
			</image>
		</g>
		<g>
			<image style="overflow:visible;" width="1076" height="341" xlink:href="606DAF22.png"  transform="matrix(1 0 0 1 231 364)">
			</image>
		</g>
		<g>
			<image style="overflow:visible;" width="442" height="385" xlink:href="606DAF25.png"  transform="matrix(1 0 0 1 246 111)">
			</image>
		</g>
		<g>
			<image style="overflow:visible;" width="297" height="289" xlink:href="606DAF26.png"  transform="matrix(1 0 0 1 493 195)">
			</image>
		</g>
		<g>
			<image style="overflow:visible;" width="257" height="273" xlink:href="606DAF24.png"  transform="matrix(1 0 0 1 698 218)">
			</image>
		</g>
		<g>
			<image style="overflow:visible;" width="289" height="275" xlink:href="606DAF2C.png"  transform="matrix(1 0 0 1 881 217)">
			</image>
		</g>
		<g>
			<image style="overflow:visible;" width="1076" height="341" xlink:href="606DAF44.png"  transform="matrix(1 0 0 1 231 364)">
			</image>
		</g>
		<g>
			<image style="overflow:visible;" width="442" height="385" xlink:href="606DAF47.png"  transform="matrix(1 0 0 1 246 111)">
			</image>
		</g>
		<g>
			<image style="overflow:visible;" width="297" height="289" xlink:href="606DAF45.png"  transform="matrix(1 0 0 1 493 195)">
			</image>
		</g>
		<g>
			<image style="overflow:visible;" width="257" height="273" xlink:href="606DAF4B.png"  transform="matrix(1 0 0 1 698 218)">
			</image>
		</g>
		<g>
			<image style="overflow:visible;" width="289" height="275" xlink:href="606DAF4C.png"  transform="matrix(1 0 0 1 881 217)">
			</image>
		</g>
		<g>
			<image style="overflow:visible;" width="1076" height="341" xlink:href="606DAF4F.png"  transform="matrix(1 0 0 1 231 364)">
			</image>
		</g>
	</g>
	<text id="house" transform="matrix(1 0 0 1 897.1177 830.8223)" class="st8 st9 st10">House</text>
</g>
</svg>
